<svg width="50" height="50" viewBox="0 0 50 50" fill="none" xmlns="http://www.w3.org/2000/svg">
<path d="M22.9167 19.0833V4.16666C12.5 5.20832 4.16669 14.1458 4.16669 25C4.16669 35.8542 12.5 44.7917 22.9167 45.8333V30.9167C20.8334 30.0625 18.75 27.75 18.75 25C18.75 22.25 20.8334 19.9375 22.9167 19.0833ZM30.9584 22.9167H45.8334C44.8334 13.0208 37.5 5.14582 27.0834 4.16666V19.0833C29.1667 19.7083 30.25 21.125 30.9584 22.9167ZM27.0834 30.9167V45.8333C37.5 44.8542 44.8334 36.9792 45.8334 27.0833H30.9584C30.25 28.875 29.1667 30.2917 27.0834 30.9167Z" fill="url(#paint0_linear)"/>
<defs>
<linearGradient id="paint0_linear" x1="25" y1="4.16666" x2="25" y2="45.8333" gradientUnits="userSpaceOnUse">
<stop stop-color="#6F8DD9"/>
<stop offset="1" stop-color="#3677E0"/>
</linearGradient>
</defs>
</svg>
